# MagicaVoxel @ Ephtracy

# group
o 

# material
mtllib untitled.mtl
usemtl palette

# normals
vn -1 0 0
vn 1 0 0
vn 0 0 1
vn 0 0 -1
vn 0 -1 0
vn 0 1 0

# texcoords
vt 0.841797 0.5
vt 0.974609 0.5
vt 0.986328 0.5

# verts
v 0 2 0
v 0 2 -4
v 0 2.1 -0.1
v 0 2.1 -3.9
v 0 2.7 0
v 0 2.7 -0.1
v 0 2.7 -3.9
v 0 2.7 -4
v 0.1 2.1 -0.1
v 0.1 2.1 -3.9
v 0.1 2.6 -0.1
v 0.1 2.6 -3.9
v 0.1 2.7 -0.1
v 0.1 2.7 -0.2
v 0.1 2.7 -3.8
v 0.1 2.7 -3.9
v 0.1 4 -0.2
v 0.1 4 -3.8
v 0.1 4.2 -0.1
v 0.1 4.2 -3.9
v 0.2 2.7 -0.2
v 0.2 2.7 -3.8
v 0.2 4 -0.2
v 0.2 4 -3.8
v 0.2 4.2 -0.2
v 0.2 4.2 -3.8
v 0.2 4.5 -0.2
v 0.2 4.5 -3.8
v 0.3 4.5 -0.3
v 0.3 4.5 -3.7
v 0.3 4.8 -0.3
v 0.3 4.8 -3.7
v 0.4 4.8 -0.4
v 0.4 4.8 -3.6
v 0.4 5 -0.4
v 0.4 5 -0.5
v 0.4 5.1 -0.5
v 0.4 5.1 -3.6
v 0.5 5.1 -0.5
v 0.5 5.1 -3.5
v 0.5 5.2 -0.5
v 0.5 5.2 -3.5
v 0.6 5.2 -0.6
v 0.6 5.2 -3.4
v 0.6 5.3 -0.6
v 0.6 5.3 -3.4
v 0.7 5.3 -0.7
v 0.7 5.3 -3.3
v 0.7 5.4 -0.7
v 0.7 5.4 -3.3
v 0.8 5.4 -0.8
v 0.8 5.4 -3.2
v 0.8 5.5 -0.8
v 0.8 5.5 -3.2
v 0.9 5.5 -0.9
v 0.9 5.5 -3.1
v 0.9 5.6 -0.9
v 0.9 5.6 -3.1
v 1 5.6 -1
v 1 5.6 -3
v 1 5.7 -1
v 1 5.7 -3
v 1.1 5.7 -1.1
v 1.1 5.7 -2.9
v 1.1 5.8 -1.1
v 1.1 5.8 -2.9
v 1.2 5.8 -1.2
v 1.2 5.8 -2.8
v 1.2 5.9 -1.2
v 1.2 5.9 -2.8
v 3.8 2.7 -0.1
v 3.8 2.7 -0.2
v 3.8 2.7 -3.8
v 3.8 2.7 -3.9
v 3.8 4 -0.1
v 3.8 4 -0.2
v 3.8 4 -3.8
v 3.8 4 -3.9
v 3.9 2.1 0
v 3.9 2.1 -0.1
v 3.9 2.1 -3.9
v 3.9 2.1 -4
v 3.9 2.6 -0.1
v 3.9 2.6 -3.9
v 3.9 2.7 0
v 3.9 2.7 -0.1
v 3.9 2.7 -3.9
v 3.9 2.7 -4
v 0.1 2.1 0
v 0.1 2.1 -0.1
v 0.1 2.1 -3.9
v 0.1 2.1 -4
v 0.1 2.6 -0.1
v 0.1 2.6 -3.9
v 0.1 2.7 0
v 0.1 2.7 -0.1
v 0.1 2.7 -3.9
v 0.1 2.7 -4
v 0.2 2.7 -0.1
v 0.2 2.7 -0.2
v 0.2 2.7 -3.8
v 0.2 2.7 -3.9
v 0.2 4 -0.1
v 0.2 4 -0.2
v 0.2 4 -3.8
v 0.2 4 -3.9
v 2.9 5.8 -1.2
v 2.9 5.8 -2.8
v 2.9 5.9 -1.2
v 2.9 5.9 -2.8
v 3 5.7 -1.1
v 3 5.7 -2.9
v 3 5.8 -1.1
v 3 5.8 -2.9
v 3.1 5.6 -1
v 3.1 5.6 -3
v 3.1 5.7 -1
v 3.1 5.7 -3
v 3.2 5.5 -0.9
v 3.2 5.5 -3.1
v 3.2 5.6 -0.9
v 3.2 5.6 -3.1
v 3.3 5.4 -0.8
v 3.3 5.4 -3.2
v 3.3 5.5 -0.8
v 3.3 5.5 -3.2
v 3.4 5.3 -0.7
v 3.4 5.3 -3.3
v 3.4 5.4 -0.7
v 3.4 5.4 -3.3
v 3.5 5.1 -0.5
v 3.5 5.1 -3.5
v 3.5 5.2 -0.5
v 3.5 5.2 -0.6
v 3.5 5.2 -3.4
v 3.5 5.2 -3.5
v 3.5 5.3 -0.6
v 3.5 5.3 -3.4
v 3.6 4.8 -0.4
v 3.6 4.8 -3.6
v 3.6 5 -0.4
v 3.6 5 -0.5
v 3.6 5.1 -0.5
v 3.6 5.1 -3.6
v 3.7 4.5 -0.3
v 3.7 4.5 -3.7
v 3.7 4.8 -0.3
v 3.7 4.8 -3.7
v 3.8 2.7 -0.2
v 3.8 2.7 -3.8
v 3.8 4 -0.2
v 3.8 4 -3.8
v 3.8 4.2 -0.2
v 3.8 4.2 -3.8
v 3.8 4.5 -0.2
v 3.8 4.5 -3.8
v 3.9 2.1 -0.1
v 3.9 2.1 -3.9
v 3.9 2.6 -0.1
v 3.9 2.6 -3.9
v 3.9 2.7 -0.1
v 3.9 2.7 -0.2
v 3.9 2.7 -3.8
v 3.9 2.7 -3.9
v 3.9 4 -0.2
v 3.9 4 -3.8
v 3.9 4.2 -0.1
v 3.9 4.2 -3.9
v 4 2 0
v 4 2 -4
v 4 2.1 -0.1
v 4 2.1 -3.9
v 4 2.7 0
v 4 2.7 -0.1
v 4 2.7 -3.9
v 4 2.7 -4
v 0 2 0
v 0 2.7 0
v 0.1 2.1 0
v 0.1 2.7 0
v 3.9 2.1 0
v 3.9 2.7 0
v 4 2 0
v 4 2.7 0
v 0.1 2.1 -0.1
v 0.1 2.6 -0.1
v 0.1 2.7 -0.1
v 0.1 4.2 -0.1
v 0.2 2.7 -0.1
v 0.2 4 -0.1
v 3.8 2.7 -0.1
v 3.8 4 -0.1
v 3.9 2.1 -0.1
v 3.9 2.6 -0.1
v 3.9 2.7 -0.1
v 3.9 4.2 -0.1
v 0.2 2.7 -0.2
v 0.2 4 -0.2
v 0.2 4.2 -0.2
v 0.2 4.5 -0.2
v 3.8 2.7 -0.2
v 3.8 4 -0.2
v 3.8 4.2 -0.2
v 3.8 4.5 -0.2
v 0.3 4.5 -0.3
v 0.3 4.8 -0.3
v 3.7 4.5 -0.3
v 3.7 4.8 -0.3
v 0.4 4.8 -0.4
v 0.4 5 -0.4
v 3.6 4.8 -0.4
v 3.6 5 -0.4
v 0.4 5 -0.5
v 0.4 5.1 -0.5
v 0.5 5.1 -0.5
v 0.5 5.2 -0.5
v 3.5 5.1 -0.5
v 3.5 5.2 -0.5
v 3.6 5 -0.5
v 3.6 5.1 -0.5
v 0.6 5.2 -0.6
v 0.6 5.3 -0.6
v 3.5 5.2 -0.6
v 3.5 5.3 -0.6
v 0.7 5.3 -0.7
v 0.7 5.4 -0.7
v 3.4 5.3 -0.7
v 3.4 5.4 -0.7
v 0.8 5.4 -0.8
v 0.8 5.5 -0.8
v 3.3 5.4 -0.8
v 3.3 5.5 -0.8
v 0.9 5.5 -0.9
v 0.9 5.6 -0.9
v 3.2 5.5 -0.9
v 3.2 5.6 -0.9
v 1 5.6 -1
v 1 5.7 -1
v 3.1 5.6 -1
v 3.1 5.7 -1
v 1.1 5.7 -1.1
v 1.1 5.8 -1.1
v 3 5.7 -1.1
v 3 5.8 -1.1
v 1.2 5.8 -1.2
v 1.2 5.9 -1.2
v 2.9 5.8 -1.2
v 2.9 5.9 -1.2
v 0.1 2.7 -3.8
v 0.1 4 -3.8
v 0.2 2.7 -3.8
v 0.2 4 -3.8
v 3.8 2.7 -3.8
v 3.8 4 -3.8
v 3.9 2.7 -3.8
v 3.9 4 -3.8
v 0 2.1 -3.9
v 0 2.7 -3.9
v 0.1 2.1 -3.9
v 0.1 2.6 -3.9
v 0.1 2.7 -3.9
v 3.9 2.1 -3.9
v 3.9 2.6 -3.9
v 3.9 2.7 -3.9
v 4 2.1 -3.9
v 4 2.7 -3.9
v 0 2.1 -0.1
v 0 2.7 -0.1
v 0.1 2.1 -0.1
v 0.1 2.6 -0.1
v 0.1 2.7 -0.1
v 3.9 2.1 -0.1
v 3.9 2.6 -0.1
v 3.9 2.7 -0.1
v 4 2.1 -0.1
v 4 2.7 -0.1
v 0.1 2.7 -0.2
v 0.1 4 -0.2
v 0.2 2.7 -0.2
v 0.2 4 -0.2
v 3.8 2.7 -0.2
v 3.8 4 -0.2
v 3.9 2.7 -0.2
v 3.9 4 -0.2
v 1.2 5.8 -2.8
v 1.2 5.9 -2.8
v 2.9 5.8 -2.8
v 2.9 5.9 -2.8
v 1.1 5.7 -2.9
v 1.1 5.8 -2.9
v 3 5.7 -2.9
v 3 5.8 -2.9
v 1 5.6 -3
v 1 5.7 -3
v 3.1 5.6 -3
v 3.1 5.7 -3
v 0.9 5.5 -3.1
v 0.9 5.6 -3.1
v 3.2 5.5 -3.1
v 3.2 5.6 -3.1
v 0.8 5.4 -3.2
v 0.8 5.5 -3.2
v 3.3 5.4 -3.2
v 3.3 5.5 -3.2
v 0.7 5.3 -3.3
v 0.7 5.4 -3.3
v 3.4 5.3 -3.3
v 3.4 5.4 -3.3
v 0.6 5.2 -3.4
v 0.6 5.3 -3.4
v 3.5 5.2 -3.4
v 3.5 5.3 -3.4
v 0.5 5.1 -3.5
v 0.5 5.2 -3.5
v 3.5 5.1 -3.5
v 3.5 5.2 -3.5
v 0.4 4.8 -3.6
v 0.4 5.1 -3.6
v 3.6 4.8 -3.6
v 3.6 5.1 -3.6
v 0.3 4.5 -3.7
v 0.3 4.8 -3.7
v 3.7 4.5 -3.7
v 3.7 4.8 -3.7
v 0.2 2.7 -3.8
v 0.2 4 -3.8
v 0.2 4.2 -3.8
v 0.2 4.5 -3.8
v 3.8 2.7 -3.8
v 3.8 4 -3.8
v 3.8 4.2 -3.8
v 3.8 4.5 -3.8
v 0.1 2.1 -3.9
v 0.1 2.6 -3.9
v 0.1 2.7 -3.9
v 0.1 4.2 -3.9
v 0.2 2.7 -3.9
v 0.2 4 -3.9
v 3.8 2.7 -3.9
v 3.8 4 -3.9
v 3.9 2.1 -3.9
v 3.9 2.6 -3.9
v 3.9 2.7 -3.9
v 3.9 4.2 -3.9
v 0 2 -4
v 0 2.7 -4
v 0.1 2.1 -4
v 0.1 2.7 -4
v 3.9 2.1 -4
v 3.9 2.7 -4
v 4 2 -4
v 4 2.7 -4
v 0 2 0
v 4 2 0
v 0 2 -4
v 4 2 -4
v 0.2 4 -0.1
v 3.8 4 -0.1
v 0.1 4 -0.2
v 0.2 4 -0.2
v 3.8 4 -0.2
v 3.9 4 -0.2
v 0.1 4 -3.8
v 0.2 4 -3.8
v 3.8 4 -3.8
v 3.9 4 -3.8
v 0.2 4 -3.9
v 3.8 4 -3.9
v 0.1 2.1 0
v 3.9 2.1 0
v 0 2.1 -0.1
v 0.1 2.1 -0.1
v 3.9 2.1 -0.1
v 4 2.1 -0.1
v 0 2.1 -3.9
v 0.1 2.1 -3.9
v 3.9 2.1 -3.9
v 4 2.1 -3.9
v 0.1 2.1 -4
v 3.9 2.1 -4
v 0 2.7 0
v 0.1 2.7 0
v 3.9 2.7 0
v 4 2.7 0
v 0 2.7 -0.1
v 0.1 2.7 -0.1
v 0.2 2.7 -0.1
v 3.8 2.7 -0.1
v 3.9 2.7 -0.1
v 4 2.7 -0.1
v 0.1 2.7 -0.2
v 0.2 2.7 -0.2
v 3.8 2.7 -0.2
v 3.9 2.7 -0.2
v 0.1 2.7 -3.8
v 0.2 2.7 -3.8
v 3.8 2.7 -3.8
v 3.9 2.7 -3.8
v 0 2.7 -3.9
v 0.1 2.7 -3.9
v 0.2 2.7 -3.9
v 3.8 2.7 -3.9
v 3.9 2.7 -3.9
v 4 2.7 -3.9
v 0 2.7 -4
v 0.1 2.7 -4
v 3.9 2.7 -4
v 4 2.7 -4
v 0.1 4.2 -0.1
v 3.9 4.2 -0.1
v 0.2 4.2 -0.2
v 3.8 4.2 -0.2
v 0.2 4.2 -3.8
v 3.8 4.2 -3.8
v 0.1 4.2 -3.9
v 3.9 4.2 -3.9
v 0.2 4.5 -0.2
v 3.8 4.5 -0.2
v 0.3 4.5 -0.3
v 3.7 4.5 -0.3
v 0.3 4.5 -3.7
v 3.7 4.5 -3.7
v 0.2 4.5 -3.8
v 3.8 4.5 -3.8
v 0.3 4.8 -0.3
v 3.7 4.8 -0.3
v 0.4 4.8 -0.4
v 3.6 4.8 -0.4
v 0.4 4.8 -3.6
v 3.6 4.8 -3.6
v 0.3 4.8 -3.7
v 3.7 4.8 -3.7
v 0.4 5 -0.4
v 3.6 5 -0.4
v 0.4 5 -0.5
v 3.6 5 -0.5
v 0.4 5.1 -0.5
v 0.5 5.1 -0.5
v 3.5 5.1 -0.5
v 3.6 5.1 -0.5
v 0.5 5.1 -3.5
v 3.5 5.1 -3.5
v 0.4 5.1 -3.6
v 3.6 5.1 -3.6
v 0.5 5.2 -0.5
v 3.5 5.2 -0.5
v 0.6 5.2 -0.6
v 3.5 5.2 -0.6
v 0.6 5.2 -3.4
v 3.5 5.2 -3.4
v 0.5 5.2 -3.5
v 3.5 5.2 -3.5
v 0.6 5.3 -0.6
v 3.5 5.3 -0.6
v 0.7 5.3 -0.7
v 3.4 5.3 -0.7
v 0.7 5.3 -3.3
v 3.4 5.3 -3.3
v 0.6 5.3 -3.4
v 3.5 5.3 -3.4
v 0.7 5.4 -0.7
v 3.4 5.4 -0.7
v 0.8 5.4 -0.8
v 3.3 5.4 -0.8
v 0.8 5.4 -3.2
v 3.3 5.4 -3.2
v 0.7 5.4 -3.3
v 3.4 5.4 -3.3
v 0.8 5.5 -0.8
v 3.3 5.5 -0.8
v 0.9 5.5 -0.9
v 3.2 5.5 -0.9
v 0.9 5.5 -3.1
v 3.2 5.5 -3.1
v 0.8 5.5 -3.2
v 3.3 5.5 -3.2
v 0.9 5.6 -0.9
v 3.2 5.6 -0.9
v 1 5.6 -1
v 3.1 5.6 -1
v 1 5.6 -3
v 3.1 5.6 -3
v 0.9 5.6 -3.1
v 3.2 5.6 -3.1
v 1 5.7 -1
v 3.1 5.7 -1
v 1.1 5.7 -1.1
v 3 5.7 -1.1
v 1.1 5.7 -2.9
v 3 5.7 -2.9
v 1 5.7 -3
v 3.1 5.7 -3
v 1.1 5.8 -1.1
v 3 5.8 -1.1
v 1.2 5.8 -1.2
v 2.9 5.8 -1.2
v 1.2 5.8 -2.8
v 2.9 5.8 -2.8
v 1.1 5.8 -2.9
v 3 5.8 -2.9
v 1.2 5.9 -1.2
v 2.9 5.9 -1.2
v 1.2 5.9 -2.8
v 2.9 5.9 -2.8

# faces
f 3/3/1 2/3/1 1/3/1
f 4/3/1 2/3/1 3/3/1
f 5/3/1 3/3/1 1/3/1
f 6/3/1 3/3/1 5/3/1
f 7/3/1 2/3/1 4/3/1
f 8/3/1 2/3/1 7/3/1
f 11/2/1 10/2/1 9/2/1
f 12/2/1 10/2/1 11/2/1
f 13/3/1 12/3/1 11/3/1
f 14/3/1 12/3/1 13/3/1
f 15/3/1 12/3/1 14/3/1
f 16/3/1 12/3/1 15/3/1
f 17/3/1 14/3/1 13/3/1
f 18/3/1 16/3/1 15/3/1
f 19/3/1 17/3/1 13/3/1
f 19/3/1 18/3/1 17/3/1
f 20/3/1 16/3/1 18/3/1
f 20/3/1 18/3/1 19/3/1
f 23/2/1 22/2/1 21/2/1
f 24/2/1 22/2/1 23/2/1
f 27/1/1 26/1/1 25/1/1
f 28/1/1 26/1/1 27/1/1
f 31/1/1 30/1/1 29/1/1
f 32/1/1 30/1/1 31/1/1
f 35/1/1 34/1/1 33/1/1
f 36/1/1 34/1/1 35/1/1
f 37/1/1 34/1/1 36/1/1
f 38/1/1 34/1/1 37/1/1
f 41/1/1 40/1/1 39/1/1
f 42/1/1 40/1/1 41/1/1
f 45/1/1 44/1/1 43/1/1
f 46/1/1 44/1/1 45/1/1
f 49/1/1 48/1/1 47/1/1
f 50/1/1 48/1/1 49/1/1
f 53/1/1 52/1/1 51/1/1
f 54/1/1 52/1/1 53/1/1
f 57/1/1 56/1/1 55/1/1
f 58/1/1 56/1/1 57/1/1
f 61/1/1 60/1/1 59/1/1
f 62/1/1 60/1/1 61/1/1
f 65/1/1 64/1/1 63/1/1
f 66/1/1 64/1/1 65/1/1
f 69/1/1 68/1/1 67/1/1
f 70/1/1 68/1/1 69/1/1
f 75/3/1 72/3/1 71/3/1
f 76/3/1 72/3/1 75/3/1
f 77/3/1 74/3/1 73/3/1
f 78/3/1 74/3/1 77/3/1
f 83/3/1 80/3/1 79/3/1
f 84/3/1 82/3/1 81/3/1
f 85/3/1 83/3/1 79/3/1
f 86/3/1 83/3/1 85/3/1
f 87/3/1 82/3/1 84/3/1
f 88/3/1 82/3/1 87/3/1
f 89/3/2 90/3/2 93/3/2
f 91/3/2 92/3/2 94/3/2
f 89/3/2 93/3/2 95/3/2
f 95/3/2 93/3/2 96/3/2
f 94/3/2 92/3/2 97/3/2
f 97/3/2 92/3/2 98/3/2
f 99/3/2 100/3/2 103/3/2
f 103/3/2 100/3/2 104/3/2
f 101/3/2 102/3/2 105/3/2
f 105/3/2 102/3/2 106/3/2
f 107/1/2 108/1/2 109/1/2
f 109/1/2 108/1/2 110/1/2
f 111/1/2 112/1/2 113/1/2
f 113/1/2 112/1/2 114/1/2
f 115/1/2 116/1/2 117/1/2
f 117/1/2 116/1/2 118/1/2
f 119/1/2 120/1/2 121/1/2
f 121/1/2 120/1/2 122/1/2
f 123/1/2 124/1/2 125/1/2
f 125/1/2 124/1/2 126/1/2
f 127/1/2 128/1/2 129/1/2
f 129/1/2 128/1/2 130/1/2
f 131/1/2 132/1/2 133/1/2
f 133/1/2 132/1/2 134/1/2
f 134/1/2 132/1/2 135/1/2
f 135/1/2 132/1/2 136/1/2
f 134/1/2 135/1/2 137/1/2
f 137/1/2 135/1/2 138/1/2
f 139/1/2 140/1/2 141/1/2
f 141/1/2 140/1/2 142/1/2
f 142/1/2 140/1/2 143/1/2
f 143/1/2 140/1/2 144/1/2
f 145/1/2 146/1/2 147/1/2
f 147/1/2 146/1/2 148/1/2
f 149/2/2 150/2/2 151/2/2
f 151/2/2 150/2/2 152/2/2
f 153/1/2 154/1/2 155/1/2
f 155/1/2 154/1/2 156/1/2
f 157/2/2 158/2/2 159/2/2
f 159/2/2 158/2/2 160/2/2
f 159/3/2 160/3/2 161/3/2
f 161/3/2 160/3/2 162/3/2
f 162/3/2 160/3/2 163/3/2
f 163/3/2 160/3/2 164/3/2
f 161/3/2 162/3/2 165/3/2
f 163/3/2 164/3/2 166/3/2
f 161/3/2 165/3/2 167/3/2
f 165/3/2 166/3/2 167/3/2
f 166/3/2 164/3/2 168/3/2
f 167/3/2 166/3/2 168/3/2
f 169/3/2 170/3/2 171/3/2
f 171/3/2 170/3/2 172/3/2
f 169/3/2 171/3/2 173/3/2
f 173/3/2 171/3/2 174/3/2
f 172/3/2 170/3/2 175/3/2
f 175/3/2 170/3/2 176/3/2
f 179/3/3 178/3/3 177/3/3
f 180/3/3 178/3/3 179/3/3
f 181/3/3 179/3/3 177/3/3
f 183/3/3 181/3/3 177/3/3
f 183/3/3 182/3/3 181/3/3
f 184/3/3 182/3/3 183/3/3
f 189/3/3 187/3/3 186/3/3
f 189/3/3 188/3/3 187/3/3
f 190/3/3 188/3/3 189/3/3
f 191/3/3 189/3/3 186/3/3
f 192/3/3 188/3/3 190/3/3
f 193/2/3 186/2/3 185/2/3
f 194/3/3 192/3/3 191/3/3
f 194/2/3 186/2/3 193/2/3
f 194/3/3 191/3/3 186/3/3
f 195/3/3 192/3/3 194/3/3
f 196/3/3 188/3/3 192/3/3
f 196/3/3 192/3/3 195/3/3
f 201/2/3 198/2/3 197/2/3
f 202/2/3 198/2/3 201/2/3
f 203/1/3 200/1/3 199/1/3
f 204/1/3 200/1/3 203/1/3
f 207/1/3 206/1/3 205/1/3
f 208/1/3 206/1/3 207/1/3
f 211/1/3 210/1/3 209/1/3
f 212/1/3 210/1/3 211/1/3
f 215/1/3 214/1/3 213/1/3
f 217/1/3 215/1/3 213/1/3
f 217/1/3 216/1/3 215/1/3
f 218/1/3 216/1/3 217/1/3
f 219/1/3 217/1/3 213/1/3
f 220/1/3 217/1/3 219/1/3
f 223/1/3 222/1/3 221/1/3
f 224/1/3 222/1/3 223/1/3
f 227/1/3 226/1/3 225/1/3
f 228/1/3 226/1/3 227/1/3
f 231/1/3 230/1/3 229/1/3
f 232/1/3 230/1/3 231/1/3
f 235/1/3 234/1/3 233/1/3
f 236/1/3 234/1/3 235/1/3
f 239/1/3 238/1/3 237/1/3
f 240/1/3 238/1/3 239/1/3
f 243/1/3 242/1/3 241/1/3
f 244/1/3 242/1/3 243/1/3
f 247/1/3 246/1/3 245/1/3
f 248/1/3 246/1/3 247/1/3
f 251/3/3 250/3/3 249/3/3
f 252/3/3 250/3/3 251/3/3
f 255/3/3 254/3/3 253/3/3
f 256/3/3 254/3/3 255/3/3
f 259/3/3 258/3/3 257/3/3
f 260/3/3 258/3/3 259/3/3
f 261/3/3 258/3/3 260/3/3
f 265/3/3 263/3/3 262/3/3
f 265/3/3 264/3/3 263/3/3
f 266/3/3 264/3/3 265/3/3
f 267/3/4 268/3/4 269/3/4
f 269/3/4 268/3/4 270/3/4
f 270/3/4 268/3/4 271/3/4
f 272/3/4 273/3/4 275/3/4
f 273/3/4 274/3/4 275/3/4
f 275/3/4 274/3/4 276/3/4
f 277/3/4 278/3/4 279/3/4
f 279/3/4 278/3/4 280/3/4
f 281/3/4 282/3/4 283/3/4
f 283/3/4 282/3/4 284/3/4
f 285/1/4 286/1/4 287/1/4
f 287/1/4 286/1/4 288/1/4
f 289/1/4 290/1/4 291/1/4
f 291/1/4 290/1/4 292/1/4
f 293/1/4 294/1/4 295/1/4
f 295/1/4 294/1/4 296/1/4
f 297/1/4 298/1/4 299/1/4
f 299/1/4 298/1/4 300/1/4
f 301/1/4 302/1/4 303/1/4
f 303/1/4 302/1/4 304/1/4
f 305/1/4 306/1/4 307/1/4
f 307/1/4 306/1/4 308/1/4
f 309/1/4 310/1/4 311/1/4
f 311/1/4 310/1/4 312/1/4
f 313/1/4 314/1/4 315/1/4
f 315/1/4 314/1/4 316/1/4
f 317/1/4 318/1/4 319/1/4
f 319/1/4 318/1/4 320/1/4
f 321/1/4 322/1/4 323/1/4
f 323/1/4 322/1/4 324/1/4
f 325/2/4 326/2/4 329/2/4
f 329/2/4 326/2/4 330/2/4
f 327/1/4 328/1/4 331/1/4
f 331/1/4 328/1/4 332/1/4
f 334/3/4 335/3/4 337/3/4
f 335/3/4 336/3/4 337/3/4
f 337/3/4 336/3/4 338/3/4
f 334/3/4 337/3/4 339/3/4
f 338/3/4 336/3/4 340/3/4
f 333/2/4 334/2/4 341/2/4
f 339/3/4 340/3/4 342/3/4
f 341/2/4 334/2/4 342/2/4
f 334/3/4 339/3/4 342/3/4
f 342/3/4 340/3/4 343/3/4
f 340/3/4 336/3/4 344/3/4
f 343/3/4 340/3/4 344/3/4
f 345/3/4 346/3/4 347/3/4
f 347/3/4 346/3/4 348/3/4
f 345/3/4 347/3/4 349/3/4
f 345/3/4 349/3/4 351/3/4
f 349/3/4 350/3/4 351/3/4
f 351/3/4 350/3/4 352/3/4
f 355/3/5 354/3/5 353/3/5
f 356/3/5 354/3/5 355/3/5
f 360/3/5 358/3/5 357/3/5
f 361/3/5 358/3/5 360/3/5
f 363/3/5 360/3/5 359/3/5
f 364/3/5 360/3/5 363/3/5
f 365/3/5 362/3/5 361/3/5
f 366/3/5 362/3/5 365/3/5
f 367/3/5 365/3/5 364/3/5
f 368/3/5 365/3/5 367/3/5
f 369/3/6 370/3/6 372/3/6
f 372/3/6 370/3/6 373/3/6
f 371/3/6 372/3/6 375/3/6
f 375/3/6 372/3/6 376/3/6
f 373/3/6 374/3/6 377/3/6
f 377/3/6 374/3/6 378/3/6
f 376/3/6 377/3/6 379/3/6
f 379/3/6 377/3/6 380/3/6
f 381/3/6 382/3/6 385/3/6
f 385/3/6 382/3/6 386/3/6
f 383/3/6 384/3/6 389/3/6
f 389/3/6 384/3/6 390/3/6
f 387/3/6 388/3/6 392/3/6
f 392/3/6 388/3/6 393/3/6
f 391/3/6 392/3/6 395/3/6
f 395/3/6 392/3/6 396/3/6
f 393/3/6 394/3/6 397/3/6
f 397/3/6 394/3/6 398/3/6
f 396/3/6 397/3/6 401/3/6
f 401/3/6 397/3/6 402/3/6
f 399/3/6 400/3/6 405/3/6
f 405/3/6 400/3/6 406/3/6
f 403/3/6 404/3/6 407/3/6
f 407/3/6 404/3/6 408/3/6
f 409/3/6 410/3/6 411/3/6
f 411/3/6 410/3/6 412/3/6
f 409/3/6 411/3/6 413/3/6
f 412/3/6 410/3/6 414/3/6
f 409/3/6 413/3/6 415/3/6
f 413/3/6 414/3/6 415/3/6
f 414/3/6 410/3/6 416/3/6
f 415/3/6 414/3/6 416/3/6
f 417/1/6 418/1/6 419/1/6
f 419/1/6 418/1/6 420/1/6
f 417/1/6 419/1/6 421/1/6
f 420/1/6 418/1/6 422/1/6
f 417/1/6 421/1/6 423/1/6
f 421/1/6 422/1/6 423/1/6
f 422/1/6 418/1/6 424/1/6
f 423/1/6 422/1/6 424/1/6
f 425/1/6 426/1/6 427/1/6
f 427/1/6 426/1/6 428/1/6
f 425/1/6 427/1/6 429/1/6
f 428/1/6 426/1/6 430/1/6
f 425/1/6 429/1/6 431/1/6
f 429/1/6 430/1/6 431/1/6
f 430/1/6 426/1/6 432/1/6
f 431/1/6 430/1/6 432/1/6
f 433/1/6 434/1/6 435/1/6
f 435/1/6 434/1/6 436/1/6
f 437/1/6 438/1/6 441/1/6
f 439/1/6 440/1/6 442/1/6
f 437/1/6 441/1/6 443/1/6
f 441/1/6 442/1/6 443/1/6
f 442/1/6 440/1/6 444/1/6
f 443/1/6 442/1/6 444/1/6
f 445/1/6 446/1/6 447/1/6
f 447/1/6 446/1/6 448/1/6
f 445/1/6 447/1/6 449/1/6
f 445/1/6 449/1/6 451/1/6
f 449/1/6 450/1/6 451/1/6
f 451/1/6 450/1/6 452/1/6
f 453/1/6 454/1/6 455/1/6
f 455/1/6 454/1/6 456/1/6
f 453/1/6 455/1/6 457/1/6
f 456/1/6 454/1/6 458/1/6
f 453/1/6 457/1/6 459/1/6
f 457/1/6 458/1/6 459/1/6
f 458/1/6 454/1/6 460/1/6
f 459/1/6 458/1/6 460/1/6
f 461/1/6 462/1/6 463/1/6
f 463/1/6 462/1/6 464/1/6
f 461/1/6 463/1/6 465/1/6
f 464/1/6 462/1/6 466/1/6
f 461/1/6 465/1/6 467/1/6
f 465/1/6 466/1/6 467/1/6
f 466/1/6 462/1/6 468/1/6
f 467/1/6 466/1/6 468/1/6
f 469/1/6 470/1/6 471/1/6
f 471/1/6 470/1/6 472/1/6
f 469/1/6 471/1/6 473/1/6
f 472/1/6 470/1/6 474/1/6
f 469/1/6 473/1/6 475/1/6
f 473/1/6 474/1/6 475/1/6
f 474/1/6 470/1/6 476/1/6
f 475/1/6 474/1/6 476/1/6
f 477/1/6 478/1/6 479/1/6
f 479/1/6 478/1/6 480/1/6
f 477/1/6 479/1/6 481/1/6
f 480/1/6 478/1/6 482/1/6
f 477/1/6 481/1/6 483/1/6
f 481/1/6 482/1/6 483/1/6
f 482/1/6 478/1/6 484/1/6
f 483/1/6 482/1/6 484/1/6
f 485/1/6 486/1/6 487/1/6
f 487/1/6 486/1/6 488/1/6
f 485/1/6 487/1/6 489/1/6
f 488/1/6 486/1/6 490/1/6
f 485/1/6 489/1/6 491/1/6
f 489/1/6 490/1/6 491/1/6
f 490/1/6 486/1/6 492/1/6
f 491/1/6 490/1/6 492/1/6
f 493/1/6 494/1/6 495/1/6
f 495/1/6 494/1/6 496/1/6
f 493/1/6 495/1/6 497/1/6
f 496/1/6 494/1/6 498/1/6
f 493/1/6 497/1/6 499/1/6
f 497/1/6 498/1/6 499/1/6
f 498/1/6 494/1/6 500/1/6
f 499/1/6 498/1/6 500/1/6
f 501/1/6 502/1/6 503/1/6
f 503/1/6 502/1/6 504/1/6
